<?xml version="1.0" encoding="utf-8"?>
<!-- Generator: Adobe Illustrator 21.0.2, SVG Export Plug-In . SVG Version: 6.00 Build 0)  -->
<svg version="1.1" xmlns="http://www.w3.org/2000/svg" xmlns:xlink="http://www.w3.org/1999/xlink" x="0px" y="0px"
	 viewBox="0 0 158 110" style="enable-background:new 0 0 158 110;" xml:space="preserve">
<style type="text/css">
	.st0{display:none;}
	.st1{display:inline;fill:#FF0000;}
	.st2{fill:#7C7C7C;}
	.st3{display:inline;fill:#FFFFFF;}
	.st4{fill:#42D31A;}
	.st5{fill:#B8B8B8;}
	.st6{fill:#FFFFFF;}
</style>
<g id="Layer_1" class="st0">
	<title>Artboard 1</title>
	<path class="st1" d="M154.4,17.5c-1.8-6.8-7.1-12-13.9-13.8C128.2,0.5,79,0.5,79,0.5s-48.3-0.2-60.6,3c-6.8,1.8-13.3,7.3-15.1,14
		C0,29.7,0.3,55,0.3,55S0,80.3,3.3,92.5c1.8,6.7,8.4,12.2,15.1,14c12.3,3.3,60.6,3,60.6,3s48.3,0.2,60.6-3c6.8-1.8,13.1-7.3,14.9-14
		c3.3-12.1,3.3-37.5,3.3-37.5S157.7,29.7,154.4,17.5z"/>
	<path class="st2" d="M154.4,17.5c-1.8-6.8-7.1-12-13.9-13.8C128.1,0.5,79,0.5,79,0.5s-48.3-0.2-60.6,3c-6.8,1.8-13.3,7.3-15.1,14
		C0,29.7,0.3,55,0.3,55s-0.3,25.3,3,37.5c1.8,6.7,8.4,12.2,15.1,14c12.3,3.3,60.6,3,60.6,3s48.3,0.2,60.6-3
		c6.8-1.8,13.1-7.3,14.9-14c3.3-12.1,3.3-37.5,3.3-37.5S157.6,29.7,154.4,17.5z"/>
	<polygon class="st3" points="63.9,79.2 103.2,55 63.9,30.8 	"/>
</g>
<g id="Layer_2">
	<g>
		<g>
			<path class="st4" d="M158,84.7c0,13.8-11.2,25-25,25H25c-13.8,0-25-11.2-25-25V25.3c0-13.8,11.2-25,25-25H133
				c13.8,0,25,11.2,25,25V84.7z"/>
			<path class="st5" d="M158,84.7c0,13.8-11.2,25-25,25H25c-13.8,0-25-11.2-25-25V25.3c0-13.8,11.2-25,25-25H133
				c13.8,0,25,11.2,25,25V84.7z"/>
		</g>
		<g>
			<g>
				<path class="st6" d="M35.1,43.8c0,0-4.3,0-8.2,3.8V32.3h-9.7v40.3H27v-3.2c0,0,2.3,4.2,8.1,4.2c0,0,13.6-0.5,13.6-15
					C48.7,58.5,48.2,43.8,35.1,43.8z M33,65.1c-3.4,0-6.2-2.8-6.2-6.2c0-3.4,2.8-6.2,6.2-6.2c3.4,0,6.2,2.8,6.2,6.2
					C39.2,62.3,36.4,65.1,33,65.1z"/>
				<path class="st6" d="M51.8,31.4v9.3c0,0,4.4-0.2,4.4,8v23.9h9.3V46.5C65.6,46.5,66,31.4,51.8,31.4z"/>
				<path class="st6" d="M88.4,43.9c0,0-16,0-16,14.9c0,0-0.5,14.7,16,14.7c0,0,16.4,0,16.4-14.7C104.7,58.8,105.2,43.9,88.4,43.9z
					 M88.4,65.1c-3.4,0-6.2-2.8-6.2-6.2c0-3.4,2.8-6.2,6.2-6.2c3.4,0,6.2,2.8,6.2,6.2C94.6,62.3,91.8,65.1,88.4,65.1z"/>
				<path class="st6" d="M131.4,44.9v2.7c0,0-2.8-3.7-8.1-3.7c0,0-13.7-0.6-13.7,14.8c0,0-0.2,14.3,13.3,14.3c0,0,5.5,0.2,8.5-3.7
					v2.3c0,0,0.7,7.1-6.2,7.1h-2.3v8.6h3.8c0,0,14.1,0.2,14.1-15.1V44.9H131.4z M125.6,65.1c-3.4,0-6.2-2.8-6.2-6.2
					c0-3.4,2.8-6.2,6.2-6.2c3.4,0,6.2,2.8,6.2,6.2C131.8,62.3,129.1,65.1,125.6,65.1z"/>
			</g>
		</g>
	</g>
</g>
</svg>
