<svg id="Layer_1" data-name="Layer 1" xmlns="http://www.w3.org/2000/svg" viewBox="0 0 158 110"><defs><style>.cls-1{fill:red;}.cls-2{fill:#7c7c7c;}.cls-3{fill:#fff;}</style></defs><title>Artboard 1</title><path class="cls-1" d="M154.4,17.5A19.58,19.58,0,0,0,140.5,3.7C128.2.5,79,.5,79,.5S30.7.3,18.4,3.5c-6.8,1.8-13.3,7.3-15.1,14C0,29.7.3,55,.3,55S0,80.3,3.3,92.5c1.8,6.7,8.4,12.2,15.1,14,12.3,3.3,60.6,3,60.6,3s48.3.2,60.6-3c6.8-1.8,13.1-7.3,14.9-14,3.3-12.1,3.3-37.5,3.3-37.5S157.7,29.7,154.4,17.5Z"/><path class="cls-2" d="M154.35,17.5a19.58,19.58,0,0,0-13.9-13.8C128.15.5,79,.5,79,.5s-48.3-.2-60.6,3c-6.8,1.8-13.3,7.3-15.1,14C0,29.7.25,55,.25,55s-.3,25.3,3,37.5c1.8,6.7,8.4,12.2,15.1,14,12.3,3.3,60.6,3,60.6,3s48.3.2,60.6-3c6.8-1.8,13.1-7.3,14.9-14,3.3-12.1,3.3-37.5,3.3-37.5S157.65,29.7,154.35,17.5Z"/><polygon class="cls-3" points="63.9 79.2 103.2 55 63.9 30.8 63.9 79.2"/></svg>